# xmcd CD database file
#
# Track frame offsets:
#	150
#	12793
#	21821
#	34378
#	48128
#	59941
#	74820
#	90910
#	106135
#	118039
#	133063
#	145838
#	157650
#	165157
#	177696
#	187715
#	198891
#
# Disc length: 2818 seconds
#
# Revision: 1
# Processed by: cddbd v1.5.2PL0 Copyright (c) Steve Scherf et al.
# Submitted via: CDex 1.70beta2
#
DISCID=df0b0011
DTITLE=Stompin' Tom Connors, 1936-2013 - Unreleased Songs from the Vault Collection - Vol 01
DYEAR=2014
DGENRE=Country Canada
TTITLE0=Truck Drivin' Man
TTITLE1=Pawn Shop In Pittsburgh
TTITLE2=Swanee River
TTITLE3=Little Wawa
TTITLE4=I'll Sail My Ship Alone
TTITLE5=Nobody's Child
TTITLE6=I Overlooked An Orchid
TTITLE7=Ode For The Road [Many Years Ago]
TTITLE8=Blue Ranger
TTITLE9=Wild Side Of Life
TTITLE10=North To Alaska
TTITLE11=Cross Canada
TTITLE12=Turkey In The Straw [Instrumental]
TTITLE13=When My Blue Moon Turns To Gold
TTITLE14=Darktown Strutter's Ball
TTITLE15=Flyin' C.P.R.
TTITLE16=My Stompin' Grounds
EXTD=YEAR: 2014
EXTT0=
EXTT1=
EXTT2=
EXTT3=
EXTT4=
EXTT5=
EXTT6=
EXTT7=
EXTT8=
EXTT9=
EXTT10=
EXTT11=
EXTT12=
EXTT13=
EXTT14=
EXTT15=
EXTT16=
PLAYORDER=
